<?xml version="1.0" encoding="utf-8"?>
<!-- Generator: Adobe Illustrator 16.2.1, SVG Export Plug-In . SVG Version: 6.00 Build 0)  -->
<!DOCTYPE svg PUBLIC "-//W3C//DTD SVG 1.1//EN" "http://www.w3.org/Graphics/SVG/1.1/DTD/svg11.dtd">
<svg version="1.1" id="Layer_1" xmlns="http://www.w3.org/2000/svg" xmlns:xlink="http://www.w3.org/1999/xlink" x="0px" y="0px"
	 width="300px" height="300px" viewBox="223.875 -155.875 300 300" enable-background="new 223.875 -155.875 300 300"
	 xml:space="preserve">
<rect x="-96.125" y="-155.875" fill="#006FA0" width="300" height="300"/>
<g>
	<path fill="none" stroke="#FFFFFF" stroke-width="11.1234" stroke-miterlimit="10" d="M133.6-8.414"/>
	<line fill="none" x1="13.25" y1="-81.913" x2="104.919" y2="-81.913"/>
	<path fill="none" stroke="#FFFFFF" stroke-width="6.25" stroke-miterlimit="10" d="M134.075-57.328
		c28.235,0,51.117,22.882,51.117,51.111s-22.882,51.111-51.117,51.111c-28.229,0-51.117-22.883-51.117-51.111
		S105.847-57.328,134.075-57.328z"/>
	<path fill="none" stroke="#FFFFFF" stroke-width="6.25" stroke-miterlimit="10" d="M-26.325-58.854
		c28.229,0,51.11,22.888,51.11,51.117c0,28.234-22.882,51.117-51.11,51.117S-77.442,20.498-77.442-7.736
		C-77.442-35.965-54.554-58.854-26.325-58.854z"/>
	<path fill="#FFB800" d="M134.82-18.131c5.865,0,10.638,4.767,10.638,10.65c0,5.872-4.772,10.639-10.638,10.639
		c-5.885,0-10.651-4.767-10.651-10.639C124.169-13.364,128.936-18.131,134.82-18.131z"/>
	<path fill="#FFB800" d="M-25.752-19.992c5.799,0,10.498,4.706,10.498,10.504c0,5.792-4.699,10.492-10.498,10.492
		c-5.792,0-10.491-4.7-10.491-10.492C-36.243-15.287-31.544-19.992-25.752-19.992z"/>
	
		<line fill="none" stroke="#FFB800" stroke-width="6.25" stroke-miterlimit="10" x1="134.307" y1="-14.676" x2="104.791" y2="-89.884"/>
	<line fill="none" stroke="#FFB800" stroke-width="6.25" stroke-miterlimit="10" x1="48.382" y1="-8.316" x2="-17.23" y2="-8.316"/>
	
		<line fill="none" stroke="#FFB800" stroke-width="6.25" stroke-miterlimit="10" x1="9.875" y1="-72.653" x2="113.152" y2="-72.653"/>
	
		<line fill="none" stroke="#FFB800" stroke-width="6.25" stroke-miterlimit="10" x1="103.948" y1="-73.667" x2="61.053" y2="-14.774"/>
	
		<line fill="none" stroke="#FFB800" stroke-width="6.25" stroke-miterlimit="10" x1="13.03" y1="-74.259" x2="-22.511" y2="-18.534"/>
	<path fill="#FFB800" d="M56.774-21.793c6.433,0,11.64,5.212,11.64,11.633c0,6.439-5.207,11.652-11.64,11.652
		c-6.427,0-11.64-5.213-11.64-11.652C45.135-16.581,50.348-21.793,56.774-21.793z"/>
	<path fill="#FFB800" d="M104.437-94.144c3.119,0,5.664,2.533,5.664,5.664c0,3.119-2.545,5.658-5.664,5.658
		c-3.125,0-5.664-2.539-5.664-5.658C98.772-91.611,101.312-94.144,104.437-94.144z"/>
	<path fill="#FFB800" d="M28.747-85.153c0,3.638-2.948,6.585-6.58,6.585H5.145c-3.638,0-6.573-2.948-6.573-6.585l0,0
		c0-3.623,2.936-6.571,6.573-6.571h17.022C25.799-91.724,28.747-88.776,28.747-85.153L28.747-85.153z"/>
</g>
<text transform="matrix(1 0 0 1 -50.7578 109.9766)"><tspan x="0" y="0" fill="#FFFFFF" font-family="'Futura-Medium'" font-size="49.3789">VDB</tspan><tspan x="101.111" y="0" fill="#FFB800" font-family="'Futura-Medium'" font-size="49.3789">POA</tspan></text>
<rect x="223.875" y="-155.875" fill="#006FA0" width="300" height="300"/>
<g>
	<path fill="none" stroke="#FFFFFF" stroke-width="11.1234" stroke-miterlimit="10" d="M453.6,10.336"/>
	<line fill="none" x1="333.25" y1="-63.163" x2="424.919" y2="-63.163"/>
	<path fill="none" stroke="#FFFFFF" stroke-width="6.25" stroke-miterlimit="10" d="M454.075-38.578
		c28.235,0,51.117,22.883,51.117,51.111s-22.882,51.111-51.117,51.111c-28.229,0-51.117-22.883-51.117-51.111
		S425.847-38.578,454.075-38.578z"/>
	<path fill="none" stroke="#FFFFFF" stroke-width="6.25" stroke-miterlimit="10" d="M293.675-40.104
		c28.229,0,51.11,22.888,51.11,51.117c0,28.234-22.882,51.117-51.11,51.117s-51.117-22.883-51.117-51.117
		C242.558-17.216,265.446-40.104,293.675-40.104z"/>
	<path fill="#FFB800" d="M454.82,0.619c5.865,0,10.638,4.767,10.638,10.65c0,5.872-4.772,10.639-10.638,10.639
		c-5.885,0-10.651-4.767-10.651-10.639C444.169,5.386,448.936,0.619,454.82,0.619z"/>
	<path fill="#FFB800" d="M294.248-1.242c5.799,0,10.498,4.705,10.498,10.504c0,5.792-4.699,10.492-10.498,10.492
		c-5.792,0-10.491-4.7-10.491-10.492C283.757,3.463,288.456-1.242,294.248-1.242z"/>
	
		<line fill="none" stroke="#FFB800" stroke-width="6.25" stroke-miterlimit="10" x1="454.307" y1="4.073" x2="424.791" y2="-71.134"/>
	
		<line fill="none" stroke="#FFB800" stroke-width="6.25" stroke-miterlimit="10" x1="368.382" y1="10.434" x2="302.77" y2="10.434"/>
	
		<line fill="none" stroke="#FFB800" stroke-width="6.25" stroke-miterlimit="10" x1="329.875" y1="-53.903" x2="433.152" y2="-53.903"/>
	
		<line fill="none" stroke="#FFB800" stroke-width="6.25" stroke-miterlimit="10" x1="423.948" y1="-54.917" x2="381.053" y2="3.976"/>
	
		<line fill="none" stroke="#FFB800" stroke-width="6.25" stroke-miterlimit="10" x1="333.03" y1="-55.509" x2="297.489" y2="0.216"/>
	<path fill="#FFB800" d="M376.774-3.043c6.433,0,11.64,5.212,11.64,11.633c0,6.439-5.207,11.652-11.64,11.652
		c-6.427,0-11.64-5.213-11.64-11.652C365.135,2.169,370.348-3.043,376.774-3.043z"/>
	<path fill="#FFB800" d="M424.437-75.395c3.119,0,5.664,2.533,5.664,5.664c0,3.119-2.545,5.658-5.664,5.658
		c-3.125,0-5.664-2.539-5.664-5.658C418.772-72.861,421.312-75.395,424.437-75.395z"/>
	<path fill="#FFB800" d="M348.747-66.403c0,3.638-2.948,6.585-6.58,6.585h-17.022c-3.638,0-6.573-2.947-6.573-6.585l0,0
		c0-3.623,2.936-6.571,6.573-6.571h17.022C345.799-72.975,348.747-70.026,348.747-66.403L348.747-66.403z"/>
</g>
</svg>
